<?xml version="1.0" encoding="utf-8"?>
<!-- Generator: Adobe Illustrator 22.1.0, SVG Export Plug-In . SVG Version: 6.00 Build 0)  -->
<svg version="1.1" id="レイヤー_1" xmlns="http://www.w3.org/2000/svg" xmlns:xlink="http://www.w3.org/1999/xlink" x="0px"
	 y="0px" viewBox="0 0 357.4832458 93.9655762" style="enable-background:new 0 0 357.4832458 93.9655762;" xml:space="preserve">
<style type="text/css">
	.st0{clip-path:url(#SVGID_2_);fill:url(#SVGID_3_);}
	.st1{fill:#475160;}
</style>
<g>
	<g>
		<defs>
			<path id="SVGID_1_" d="M47.0839844,37.4755859l-15.6975098,9.0629883
				c-0.1116943,0.0737305-0.2084961,0.1738281-0.2800293,0.2976074c-0.2366943,0.4101562-0.1103516,0.9301758,0.279541,1.1879883
				l15.6994629,9.064209c0.1196289,0.0595703,0.2542725,0.0930176,0.3967285,0.0930176
				c0.4733887,0,0.8603516-0.3691406,0.8890381-0.8352051V38.2163086c-0.0081787-0.1328125-0.0465088-0.2661133-0.1176758-0.3891602
				C48.0166016,37.4165039,47.5023193,37.2661133,47.0839844,37.4755859z M82.7158203,23.9394531
				c-0.5493164-0.9511719-1.315918-1.6987305-2.2008057-2.2160645l-0.0539551-0.0310059
				c-0.1033936-0.059082-0.208374-0.1149902-0.3148193-0.1679688c-1.6634521-0.824707-3.6730957-0.8774414-5.4355469,0.0009766
				L56.2884521,32.161377l-0.0009766,0.0007324c-0.2664795,0.1533203-0.4459229,0.4411621-0.4459229,0.770752v53.8010254
				c0,0.4909668,0.3979492,0.8891602,0.888916,0.8891602c0.1584473,0,0.3071289-0.0415039,0.4360352-0.1142578
				l23.6091309-13.6308594c0.7709961-0.505127,1.4385986-1.1936035,1.9309082-2.0466309
				c0.5383301-0.9328613,0.8017578-1.9492188,0.8154297-2.9550781l0.012207-41.9714355
				C83.5206299,25.8955078,83.2563477,24.8757324,82.7158203,23.9394531z M3.7709961,32.0773926L22.1933594,42.713623
				l0.0009766,0.0004883c0.2661133,0.1540527,0.6049805,0.1655273,0.8905029,0.0007324l46.5931396-26.9003906
				c0.4251709-0.2456055,0.5708008-0.7893066,0.3254395-1.2145996c-0.0793457-0.1369629-0.1895752-0.2451172-0.3168945-0.3203125
				L46.0773926,0.6486818c-0.822998-0.4152832-1.7531738-0.6489258-2.737793-0.6486816
				c-1.0772705,0-2.0891113,0.2802734-2.967041,0.7712402L4.0180664,21.746582
				c-0.8671875,0.5161133-1.6182861,1.2548828-2.1589355,2.1911621c-0.5490723,0.951416-0.8131104,1.9890137-0.8186035,3.013916
				v0.0625c0.0004883,0.1188965,0.0046387,0.237793,0.012207,0.3564453
				C1.1700439,29.2236328,2.1291504,30.9902344,3.7709961,32.0773926z M47.9266357,66.1950684L1.3334961,39.2944336
				c-0.4251709-0.2453613-0.9688721-0.0996094-1.2143555,0.3254395C0.039917,39.7570801,0.0014648,39.9067383,0,40.0546875
				V67.315918c0.052002,0.9204102,0.3144531,1.8427734,0.8071289,2.6955566
				c0.5386963,0.9328613,1.2871094,1.6691895,2.1514893,2.1838379l36.3421631,20.9963379
				c0.8807373,0.4929199,1.8962402,0.7739258,2.9772949,0.7739258c1.0983887,0,2.1289062-0.2902832,3.0195312-0.7978516
				l0.053833-0.03125c0.1029053-0.0600586,0.2037354-0.1230469,0.3027344-0.1887207
				c1.5460205-1.0283203,2.5965576-2.7421875,2.717041-4.7077637V66.9667969
				C48.371582,66.6591797,48.2121582,66.3598633,47.9266357,66.1950684z"/>
		</defs>
		<clipPath id="SVGID_2_">
			<use xlink:href="#SVGID_1_"  style="overflow:visible;"/>
		</clipPath>
		<linearGradient id="SVGID_3_" gradientUnits="userSpaceOnUse" x1="-0.5159951" y1="94.0469971" x2="83.5083313" y2="0.5216895">
			<stop  offset="0.000016" style="stop-color:#0A6FE1"/>
			<stop  offset="0.1794338" style="stop-color:#137AE3"/>
			<stop  offset="0.4913758" style="stop-color:#2C96E7"/>
			<stop  offset="0.8961138" style="stop-color:#54C4ED"/>
			<stop  offset="1" style="stop-color:#5FD1EF"/>
		</linearGradient>
		<rect x="0.0000032" y="-0.0000465" class="st0" width="83.5341721" height="93.9656677"/>
	</g>
	<g>
		<path class="st1" d="M292.9101562,44.4763794c-0.0158997-0.0230446-0.0332947-0.045002-0.0482483-0.0686455
			c-0.2234192-0.3437042-0.3556519-0.7533989-0.3556519-1.1951828c0-0.5911331,0.2345276-1.1253281,0.6123657-1.5186157
			c0.0159302-0.0166473,15.329834-15.4787941,15.329834-15.4787941h-9.2854614l-16.6877747,16.8781776
			c-0.7445679,0.8291588-1.4510498,1.6933022-2.1343384,2.5761452V26.2309608h-9.6010132v41.519474h0.1418457h9.4591675
			l-0.0617065-9.2228508c0-2.562397,1.0278625-4.8825455,2.6897888-6.5789833l3.2227478-3.2989998
			c0.0550232,1.8114128,0.697876,3.6499977,1.6374207,5.0637779l9.579071,14.037056h12.0136719L292.9101562,44.4763794z"/>
		<polygon class="st1" points="195.6080475,26.2230511 195.6080475,42.6643562 177.1665344,42.6643562 177.1665344,26.2230511 
			167.5659943,26.2230511 167.5659943,42.6643562 167.5659943,50.3534698 167.5659943,67.7425232 177.1665344,67.7425232 
			177.1665344,50.3534698 195.6080475,50.3534698 195.6080475,67.7425232 205.2085876,67.7425232 205.2085876,50.3534698 
			205.2085876,47.7746696 205.2085876,42.6643562 205.2085876,26.2230511 		"/>
		<path class="st1" d="M356.05896,38.5731964c-0.9469299-2.6410408-2.3278198-4.9785576-4.1052246-6.9483585
			c-1.780365-1.9712734-3.9848633-3.5391026-6.5543213-4.6596165c-1.490448-0.6496544-3.1137695-1.1122723-4.8519897-1.3873444
			c-0.2642822-0.041811-0.5317993-0.0783424-0.8013-0.1114998c-1.013855-0.1248035-2.0638733-0.1891365-3.1489563-0.1891365
			c-1.0796204,0-2.12677,0.0650196-3.1402588,0.1913147c-0.2695312,0.0335884-0.5371704,0.0705719-0.8018188,0.1129322
			c-1.7204285,0.275423-3.3359985,0.7366695-4.8295898,1.3832626c-2.5891724,1.120985-4.8045349,2.6888142-6.5848999,4.6600876
			c-1.7754517,1.9678783-3.1573181,4.3053951-4.1052246,6.9478855v0.000473
			c-0.9449158,2.6381721-1.4242859,5.534977-1.4242859,8.6098518c0,2.9995918,0.4793701,5.8394623,1.4252625,8.4399834
			c0.9479065,2.6053314,2.3297729,4.9042358,4.1062012,6.8340149c1.7793884,1.9331284,3.994751,3.4715271,6.5839233,4.5727386
			c1.664856,0.7082977,3.4807434,1.1904602,5.4249268,1.4451675c0.0641479,0.0083923,0.1297607,0.0141983,0.1941833,0.0221252
			c1.0173035,0.1250229,2.0675354,0.1912613,3.1515808,0.1912613c1.0864258,0,2.1364746-0.0652008,3.1514282-0.1879196
			c0.0665283-0.008049,0.1343689-0.0139694,0.200592-0.0225296c1.9647522-0.2538834,3.7888489-0.7369843,5.4482422-1.4481049
			c2.569458-1.1016998,4.7749329-2.6400986,6.5543213-4.5727386c1.7784119-1.9312096,3.1602783-4.2306061,4.1062012-6.8340149
			c0.9459229-2.6005211,1.425293-5.4403915,1.425293-8.4399834C357.4832458,44.1081734,357.0038757,41.2113686,356.05896,38.5731964
			z M345.2347717,55.5043716c-0.0318604,0.0891113-0.0661621,0.1769714-0.1006775,0.2647896
			c-0.0038452,0.0097923-0.0076904,0.0195808-0.0115662,0.0293503c-0.0334473,0.0842476-0.0668945,0.168438-0.1027527,0.2514496
			c-1.4070435,3.2582436-4.6479187,5.539257-8.4226074,5.539257c-3.7963867,0-7.0538635-2.306675-8.4477844-5.5948982
			c-0.0037537-0.0088882-0.0072021-0.0179329-0.0109558-0.0268402c-0.0487671-0.1207199-0.0965271-0.2419128-0.1433716-0.3636169
			c-0.0054321-0.014637-0.011261-0.0290565-0.0166321-0.0437317c-1.0192871-2.6639175-1.5792847-5.5550308-1.5792847-8.577343
			s0.5599976-5.9134254,1.5792847-8.577343c0.0053711-0.0146751,0.0112-0.0290947,0.0166321-0.0437317
			c0.0468445-0.1217041,0.0946045-0.242897,0.1433716-0.3636169c0.0037537-0.0089073,0.0072021-0.017952,0.0109558-0.0268402
			c1.3939209-3.2882195,4.6513977-5.5948982,8.4477844-5.5948982c3.7950439,0,7.0514832,2.305088,8.4461975,5.5914459
			c0.0057373,0.0134964,0.0110168,0.0272522,0.0166931,0.0408096c0.0451965,0.1120872,0.0895386,0.2246094,0.1330566,0.3375397
			c0.0080566,0.0215645,0.0166626,0.0428505,0.0245361,0.0645103c1.0173645,2.6617203,1.5762329,5.5500488,1.5762329,8.5693588
			C346.7938843,49.9823036,346.2412109,52.8550911,345.2347717,55.5043716z"/>
		<path class="st1" d="M151.8820496,38.5731964c-0.9469147-2.6410408-2.3278046-4.9785576-4.1052246-6.9483585
			c-1.780365-1.9712734-3.9848785-3.5391026-6.5543213-4.6596165c-1.4904327-0.6496544-3.1137543-1.1122723-4.8519897-1.3873444
			c-0.2642822-0.041811-0.5317841-0.0783424-0.8012848-0.1114998c-1.013855-0.1248035-2.0638733-0.1891365-3.1489716-0.1891365
			c-1.0796051,0-2.12677,0.0650196-3.1402588,0.1913147c-0.269516,0.0335884-0.5371857,0.0705719-0.8018188,0.1129322
			c-1.7204361,0.275423-3.3359985,0.7366695-4.8295898,1.3832626c-2.58918,1.120985-4.8045349,2.6888142-6.5849075,4.6600876
			c-1.7754364,1.9678783-3.1573181,4.3053951-4.1052017,6.9478855v0.000473
			c-0.9449387,2.6381721-1.4243011,5.534977-1.4243011,8.6098518c0,2.9995918,0.4793625,5.8394623,1.4252777,8.4399834
			c0.9478912,2.6053314,2.3297729,4.9042358,4.1062012,6.8340149c1.7793884,1.9331284,3.9947433,3.4715271,6.5839233,4.5727386
			c1.6648407,0.7082977,3.4807434,1.1904602,5.4248962,1.4451675c0.0641632,0.0083923,0.129776,0.0141983,0.1941986,0.0221252
			c1.0173035,0.1250229,2.0675507,0.1912613,3.1515808,0.1912613c1.0864258,0,2.1364746-0.0652008,3.1514282-0.1879196
			c0.0665436-0.008049,0.1343689-0.0139694,0.200592-0.0225296c1.9647522-0.2538834,3.7888641-0.7369843,5.4482422-1.4481049
			c2.569458-1.1016998,4.7749481-2.6400986,6.5543365-4.5727386c1.7783966-1.9312096,3.1602783-4.2306061,4.1062012-6.8340149
			c0.9459076-2.6005211,1.4252777-5.4403915,1.4252777-8.4399834
			C153.3063354,44.1081734,152.8269653,41.2113686,151.8820496,38.5731964z M141.0578613,55.5043716
			c-0.0318604,0.0891113-0.0661621,0.1769714-0.1006775,0.2647896c-0.0038452,0.0097923-0.0076904,0.0195808-0.0115662,0.0293503
			c-0.033432,0.0842476-0.0668945,0.168438-0.1027374,0.2514496c-1.4070587,3.2582436-4.6479187,5.539257-8.4226227,5.539257
			c-3.7963867,0-7.0538712-2.306675-8.4477692-5.5948982c-0.0037766-0.0088882-0.0072174-0.0179329-0.0109634-0.0268402
			c-0.0487595-0.1207199-0.0965424-0.2419128-0.1433792-0.3636169c-0.0054245-0.014637-0.0112686-0.0290565-0.0166168-0.0437317
			c-1.0192947-2.6639175-1.5792847-5.5550308-1.5792847-8.577343s0.5599899-5.9134254,1.5792847-8.577343
			c0.0053482-0.0146751,0.0111923-0.0290947,0.0166168-0.0437317c0.0468369-0.1217041,0.0946198-0.242897,0.1433792-0.3636169
			c0.003746-0.0089073,0.0071869-0.017952,0.0109634-0.0268402c1.393898-3.2882195,4.6513824-5.5948982,8.4477692-5.5948982
			c3.7950439,0,7.0514832,2.305088,8.4462128,5.5914459c0.0057373,0.0134964,0.0110016,0.0272522,0.0166779,0.0408096
			c0.0451813,0.1120872,0.0895233,0.2246094,0.1330719,0.3375397c0.0080414,0.0215645,0.0166473,0.0428505,0.0245209,0.0645103
			c1.0173645,2.6617203,1.5762482,5.5500488,1.5762482,8.5693588
			C142.6169891,49.9823036,142.0643158,52.8550911,141.0578613,55.5043716z"/>
		<path class="st1" d="M243.0235748,26.2230396h-9.6177673l-15.7170563,41.5195007h6.6632385l1.9879761-5.5913849
			l0.088913-0.2502556c0.0005493,0.0015717,0.0010223,0.0031395,0.0014954,0.0045929l0.2928772-0.8247032l0.7291565-2.0523262
			c0.0067596-0.0172653,0.0116272-0.0354691,0.0188446-0.0523453c0.3314972-0.7783813,1.0968323-1.3239136,1.9890594-1.3239136
			h13.822876l1.0068207,2.9292183l2.4613495,7.1611176h0.0014954h11.5597382L243.0235748,26.2230396z M229.9407654,52.0258942
			l0.5942535-1.6724205l4.6292114-13.0276947l1.1247711-0.0127907l4.4877777,13.0556717l-5.461319,0.0016556h-0.0014038h-0.0005493
			c-0.1757965,0-0.3495483,0.0067101-0.522522,0.0164413C232.9928589,50.4600983,231.3271942,51.0539627,229.9407654,52.0258942z"/>
	</g>
</g>
</svg>
