<?xml version="1.0" encoding="UTF-8"?>
<svg width="150px" height="40px" viewBox="0 0 150 40" version="1.1" xmlns="http://www.w3.org/2000/svg" xmlns:xlink="http://www.w3.org/1999/xlink">
    <!-- Generator: Sketch 48.2 (47327) - http://www.bohemiancoding.com/sketch -->
    <title>CI</title>
    <desc>Created with Sketch.</desc>
    <defs>
        <linearGradient x1="-0.613131226%" y1="100.045222%" x2="100.00994%" y2="0.555%" id="linearGradient-1">
            <stop stop-color="#0A6FE1" offset="0.001600922%"></stop>
            <stop stop-color="#137AE3" offset="17.94%"></stop>
            <stop stop-color="#2C96E7" offset="49.14%"></stop>
            <stop stop-color="#54C4ED" offset="89.61%"></stop>
            <stop stop-color="#5FD1EF" offset="100%"></stop>
        </linearGradient>
        <path d="M0.0251396648,16.7483683 C0.0319406676,16.7306887 0.0401633336,16.71332 0.0498603352,16.6964211 C0.152932961,16.5174737 0.380446927,16.456 0.558938547,16.5595789 L20.0807263,27.8863158 C20.2005587,27.9553684 20.2675978,28.0816842 20.2671788,28.2109474 L20.2671788,37.1684211 C20.2168994,37.9957895 19.7765363,38.7170526 19.1287709,39.1503158 C19.0872905,39.1781053 19.0449721,39.2046316 19.0018156,39.2298947 L18.9796089,39.2429474 C18.6062849,39.4564211 18.1747207,39.5789474 17.7142458,39.5789474 C17.2613128,39.5789474 16.8356145,39.4606316 16.4668994,39.2530526 L1.23980447,30.4126316 C0.877374302,30.1957895 0.56396648,29.8858947 0.338128492,29.4930526 C0.174863363,29.2086029 0.0717826312,28.9059299 0.0251396648,28.5996755 L0.0251396648,16.7483683 Z M18.045106,0.0168421053 L18.2734731,0.0168421053 C18.6438406,0.0332534171 18.9935453,0.129053407 19.3060056,0.287578947 L29.1984637,6.02694737 C29.251676,6.05852632 29.2977654,6.104 29.3312849,6.16168421 C29.4339385,6.34063158 29.3727654,6.56968421 29.1946927,6.67326316 L9.67248603,17.9995789 C9.55265363,18.0690526 9.41103352,18.0644211 9.29958101,17.9991579 L9.29916201,17.9991579 L1.58002793,13.5208421 C0.892039106,13.0631579 0.490223464,12.3191579 0.441201117,11.5389474 C0.437849162,11.4888421 0.436173184,11.4387368 0.436173184,11.3890526 L0.436173184,11.3625263 C0.438268156,10.9309474 0.548882682,10.4943158 0.778910615,10.0934737 C1.00558659,9.69936842 1.3202514,9.38821053 1.68351955,9.17094737 L16.9160615,0.338947368 C17.2527898,0.150100672 17.636207,0.0349826669 18.045106,0.0168421053 Z M34.6575419,10.0943158 C34.8842179,10.4884211 34.9948324,10.9178947 35.0002793,11.3427368 L34.9952514,29.0147368 C34.9893855,29.4383158 34.8791899,29.8665263 34.6537709,30.2593684 C34.4472067,30.6185263 34.1677374,30.9086316 33.8446927,31.1208421 L23.9526536,36.8602105 C23.8986034,36.8909474 23.8361732,36.9086316 23.7699721,36.9086316 C23.5642458,36.9086316 23.397486,36.7406316 23.397486,36.5338947 L23.397486,13.8808421 C23.397486,13.7418947 23.472486,13.6210526 23.5839385,13.5566316 L23.5843575,13.5562105 L31.3034916,9.07789474 C32.0417598,8.70778947 32.8839385,8.73010526 33.5807263,9.07747368 C33.6255587,9.09978947 33.6695531,9.12336842 33.7127095,9.14821053 L33.7353352,9.16126316 C34.1061453,9.37894737 34.427514,9.69389474 34.6575419,10.0943158 Z M19.727933,15.7936842 C19.9030726,15.7056842 20.1188547,15.7688421 20.2181564,15.9418947 C20.247905,15.9936842 20.2638268,16.0496842 20.2671788,16.1056842 L20.2671788,23.7389474 C20.2550279,23.9355789 20.0932961,24.0909474 19.8946927,24.0909474 C19.8351955,24.0909474 19.7786313,24.0766316 19.7287709,24.0513684 L13.1505587,20.2353684 C12.9871508,20.1267368 12.9343575,19.9077895 13.0336592,19.7347368 C13.0634078,19.6829474 13.1040503,19.6408421 13.1509777,19.6096842 L19.727933,15.7936842 Z" id="path-2"></path>
    </defs>
    <g id="top" stroke="none" stroke-width="1" fill="none" fill-rule="evenodd" transform="translate(-565.000000, -3738.000000)">
        <g id="footer" transform="translate(0.000000, 3480.000000)">
            <g id="CI" transform="translate(565.000000, 258.000000)">
                <g id="Group-3">
                    <mask id="mask-3" fill="white">
                        <use xlink:href="#path-2"></use>
                    </mask>
                    <use id="Clip-2" fill="url(#linearGradient-1)" xlink:href="#path-2"></use>
                </g>
                <path d="M122.727654,18.7414737 C122.72095,18.7313684 122.713827,18.7225263 122.707542,18.7124211 C122.613687,18.5675789 122.558799,18.3953684 122.558799,18.2092632 C122.558799,17.9604211 122.656844,17.7355789 122.815223,17.5696842 C122.821927,17.5629474 129.237989,11.0526316 129.237989,11.0526316 L125.347626,11.0526316 L118.355447,18.1591579 C118.043296,18.5082105 117.747486,18.872 117.461313,19.2437895 L117.461313,11.0589474 L113.438547,11.0589474 L113.438547,28.5406316 L117.461313,28.5406316 L117.435335,24.6576842 C117.435335,23.5785263 117.866061,22.6021053 118.56243,21.8875789 L119.912849,20.4985263 C119.935894,21.2610526 120.204888,22.0353684 120.598743,22.6303158 L124.612291,28.5406316 L129.646089,28.5406316 L122.727654,18.7414737" id="Fill-4" fill="#474E57"></path>
                <polyline id="Fill-5" fill="#474E57" points="81.9586592 11.056 81.9586592 17.9785263 74.2319832 17.9785263 74.2319832 11.056 70.2092179 11.056 70.2092179 28.5376842 74.2319832 28.5376842 74.2319832 21.216 81.9586592 21.216 81.9586592 28.5376842 85.9814246 28.5376842 85.9814246 11.056 81.9586592 11.056"></polyline>
                <path d="M144.651536,23.3844211 C144.638128,23.4223158 144.623883,23.4593684 144.609637,23.4964211 C144.607961,23.5006316 144.606285,23.5048421 144.604609,23.5086316 C144.590363,23.544 144.576117,23.5793684 144.561453,23.6143158 C143.971927,24.9865263 142.613966,25.9465263 141.032263,25.9465263 C139.44176,25.9465263 138.077095,24.9755789 137.492598,23.5911579 C137.490922,23.5873684 137.489665,23.5835789 137.487989,23.5797895 C137.467877,23.5288421 137.447765,23.4778947 137.428073,23.4265263 C137.425978,23.4202105 137.423464,23.4147368 137.42095,23.4084211 C136.993994,22.2867368 136.759358,21.0690526 136.759358,19.7966316 C136.759358,18.5242105 136.993994,17.3069474 137.42095,16.1852632 C137.423464,16.1789474 137.425978,16.1730526 137.428073,16.1667368 C137.447765,16.1157895 137.467877,16.0644211 137.487989,16.0138947 C137.489665,16.0101053 137.490922,16.0058947 137.492598,16.0025263 C138.077095,14.6181053 139.44176,13.6467368 141.032263,13.6467368 C142.622346,13.6467368 143.986592,14.6172632 144.571508,16.0008421 C144.574022,16.0067368 144.575698,16.0122105 144.578212,16.0181053 C144.597067,16.0652632 144.615503,16.1128421 144.633939,16.1604211 C144.637291,16.1692632 144.641061,16.1785263 144.644413,16.1873684 C145.070531,17.3082105 145.304749,18.5242105 145.304749,19.7953684 C145.304749,21.0597895 145.073045,22.2694737 144.651536,23.3844211 Z M149.186732,16.256 C148.789944,15.1435789 148.211313,14.1595789 147.46676,13.3301053 C146.72095,12.5002105 145.797067,11.84 144.720251,11.3684211 C144.09595,11.0947368 143.415922,10.8997895 142.687709,10.784 C142.576676,10.7663158 142.464385,10.7511579 142.351676,10.7372632 C141.926816,10.6846316 141.486872,10.6576842 141.032263,10.6576842 C140.579749,10.6576842 140.141061,10.6850526 139.71662,10.7381053 C139.603492,10.752 139.49162,10.768 139.380587,10.7856842 C138.659497,10.9014737 137.982821,11.096 137.357263,11.368 C136.272067,11.84 135.343994,12.5002105 134.598184,13.3301053 C133.854469,14.1587368 133.275419,15.1431579 132.877793,16.2555789 L132.877793,16.256 C132.481844,17.3667368 132.281145,18.5865263 132.281145,19.8812632 C132.281145,21.144 132.481844,22.3397895 132.878212,23.4349474 C133.275838,24.5317895 133.854888,25.4997895 134.599022,26.312 C135.344413,27.1263158 136.272486,27.7738947 137.357682,28.2374737 C138.054888,28.536 138.815782,28.7389474 139.630726,28.8458947 C139.657123,28.8496842 139.685196,28.8522105 139.712011,28.8555789 C140.138128,28.9082105 140.578073,28.936 141.032263,28.936 C141.487291,28.936 141.927654,28.9082105 142.352933,28.8564211 C142.380587,28.8534737 142.409078,28.8509474 142.436732,28.8471579 C143.260056,28.7402105 144.024302,28.5372632 144.719413,28.2374737 C145.796229,27.7734737 146.720531,27.1258947 147.465922,26.312 C148.210894,25.4989474 148.789944,24.5309474 149.186313,23.4349474 C149.582682,22.3397895 149.78338,21.144 149.78338,19.8812632 C149.78338,18.5865263 149.582682,17.3667368 149.186732,16.256 Z" id="Fill-6" fill="#474E57"></path>
                <path d="M59.102514,23.3844211 C59.0891061,23.4223158 59.0748603,23.4593684 59.0601955,23.4964211 C59.0585196,23.5006316 59.0568436,23.5048421 59.0555866,23.5086316 C59.0413408,23.544 59.027514,23.5793684 59.0124302,23.6143158 C58.422905,24.9865263 57.0649441,25.9465263 55.4832402,25.9465263 C53.8927374,25.9465263 52.5276536,24.9755789 51.9435754,23.5911579 C51.9418994,23.5873684 51.9406425,23.5835789 51.9393855,23.5797895 C51.9188547,23.5288421 51.898743,23.4778947 51.8790503,23.4265263 C51.8769553,23.4202105 51.8744413,23.4147368 51.8723464,23.4084211 C51.4449721,22.2867368 51.2103352,21.0690526 51.2103352,19.7966316 C51.2103352,18.5242105 51.4449721,17.3069474 51.8723464,16.1852632 C51.8744413,16.1789474 51.8769553,16.1730526 51.8790503,16.1667368 C51.898743,16.1157895 51.9188547,16.0644211 51.9393855,16.0138947 C51.9406425,16.0101053 51.9418994,16.0058947 51.9435754,16.0025263 C52.5276536,14.6181053 53.8927374,13.6467368 55.4832402,13.6467368 C57.073324,13.6467368 58.4379888,14.6172632 59.022067,16.0008421 C59.024581,16.0067368 59.027095,16.0122105 59.0291899,16.0181053 C59.0480447,16.0652632 59.0668994,16.1128421 59.0849162,16.1604211 C59.0882682,16.1692632 59.0920391,16.1785263 59.0953911,16.1873684 C59.5215084,17.3082105 59.7557263,18.5242105 59.7557263,19.7953684 C59.7557263,21.0597895 59.5240223,22.2694737 59.102514,23.3844211 Z M63.6377095,16.256 C63.2409218,15.1435789 62.6622905,14.1595789 61.9177374,13.3301053 C61.1715084,12.5002105 60.2480447,11.84 59.1712291,11.3684211 C58.5469274,11.0947368 57.8668994,10.8997895 57.1382682,10.784 C57.0276536,10.7663158 56.9157821,10.7511579 56.8026536,10.7372632 C56.3777933,10.6846316 55.9378492,10.6576842 55.4832402,10.6576842 C55.0311453,10.6576842 54.5924581,10.6850526 54.1675978,10.7381053 C54.0544693,10.752 53.9425978,10.768 53.8315642,10.7856842 C53.1108939,10.9014737 52.4337989,11.096 51.8082402,11.368 C50.7230447,11.84 49.7949721,12.5002105 49.049162,13.3301053 C48.3050279,14.1587368 47.7259777,15.1431579 47.3287709,16.2555789 L47.3287709,16.256 C46.9328212,17.3667368 46.7321229,18.5865263 46.7321229,19.8812632 C46.7321229,21.144 46.9328212,22.3397895 47.3291899,23.4349474 C47.7263966,24.5317895 48.3054469,25.4997895 49.05,26.312 C49.7953911,27.1263158 50.7234637,27.7738947 51.8086592,28.2374737 C52.5058659,28.536 53.2667598,28.7389474 54.0812849,28.8458947 C54.1081006,28.8496842 54.1357542,28.8522105 54.1629888,28.8555789 C54.5891061,28.9082105 55.0290503,28.936 55.4832402,28.936 C55.9386872,28.936 56.3786313,28.9082105 56.8039106,28.8564211 C56.8315642,28.8534737 56.8600559,28.8509474 56.8877095,28.8471579 C57.7110335,28.7402105 58.4752793,28.5372632 59.1703911,28.2374737 C60.2472067,27.7734737 61.1710894,27.1258947 61.9168994,26.312 C62.6618715,25.4989474 63.2409218,24.5309474 63.6372905,23.4349474 C64.0336592,22.3397895 64.2343575,21.144 64.2343575,19.8812632 C64.2343575,18.5865263 64.0336592,17.3667368 63.6377095,16.256 Z" id="Fill-7" fill="#474E57"></path>
                <path d="M96.3439944,21.9204211 L98.5324022,15.7305263 L99.0037709,15.7250526 L100.884218,21.2223158 L98.5956704,21.2227368 L98.5948324,21.2227368 C98.5210894,21.2227368 98.4486034,21.2256842 98.3761173,21.2298947 C97.6227654,21.2606316 96.9247207,21.5107368 96.3439944,21.9204211 Z M101.825279,11.056 L97.7958101,11.056 L91.2104749,28.5376842 L94.0022346,28.5376842 L94.8351955,26.1835789 L94.872067,26.0783158 C94.872486,26.0787368 94.872486,26.0795789 94.872905,26.08 L95.3015363,24.8686316 C95.3040503,24.8610526 95.3061453,24.8538947 95.3090782,24.8467368 C95.4477654,24.5187368 95.7687151,24.2892632 96.1428771,24.2892632 L101.934218,24.2892632 L103.387709,28.5376842 L108.231285,28.5376842 L101.825279,11.056 Z" id="Fill-8" fill="#474E57"></path>
            </g>
        </g>
    </g>
</svg>