<?xml version="1.0" encoding="UTF-8"?>
<svg width="24px" height="24px" viewBox="0 0 24 24" version="1.1" xmlns="http://www.w3.org/2000/svg" xmlns:xlink="http://www.w3.org/1999/xlink">
    <!-- Generator: Sketch 48.2 (47327) - http://www.bohemiancoding.com/sketch -->
    <title>advertisement</title>
    <desc>Created with Sketch.</desc>
    <defs>
        <path d="M7.54866664,12.6563333 L8.89616664,12.6563333 L8.72933331,11.638018 C8.54966664,10.6699897 8.38924998,10.0183154 8.22241664,9 C7.99569442,10.1133265 7.8267222,10.9926658 7.71549998,11.638018 L7.54866664,12.6563333 Z M9.39173091,15.7392959 L9.13999998,14.145 L7.31766664,14.145 L7.06593571,15.7392959 C6.98919065,16.225348 6.57024632,16.5833333 6.07817275,16.5833333 L6.02791664,16.5833333 C5.61414389,16.5833333 5.2787148,16.2479042 5.2787148,15.8341315 C5.2787148,15.7872618 5.283113,15.7404954 5.29185157,15.6944475 L6.77827709,7.86172298 C6.86784257,7.38975734 7.28035378,7.04816667 7.76074274,7.04816667 L8.72259055,7.04816667 C9.20297951,7.04816667 9.61549072,7.38975734 9.7050562,7.86172298 L11.189089,15.6818392 C11.2673286,16.094123 10.9965323,16.4917707 10.5842486,16.5700102 C10.5375475,16.5788727 10.4901179,16.5833333 10.4425833,16.5833333 L10.3794939,16.5833333 C9.88742031,16.5833333 9.46847597,16.225348 9.39173091,15.7392959 Z M12.5775,15.5833333 L12.5775,8.03533333 C12.5775,7.48304858 13.0252153,7.03533333 13.5775,7.03533333 L14.3228333,7.03533333 C16.5943333,7.03533333 18.006,8.5625 18.006,11.7708333 C18.006,14.9791667 16.5943333,16.5833333 14.4383333,16.5833333 L13.5775,16.5833333 C13.0252153,16.5833333 12.5775,16.1356181 12.5775,15.5833333 Z M14.4896667,14.831 L14.7078333,14.831 C15.5548333,14.831 16.0553333,13.9436852 16.0553333,11.7733611 C16.0553333,9.60303704 15.5548333,8.78766667 14.7078333,8.78766667 L14.4896667,8.78766667 L14.4896667,14.831 Z M12,21.1666667 C17.0626102,21.1666667 21.1666667,17.0626102 21.1666667,12 C21.1666667,6.93738979 17.0626102,2.83333333 12,2.83333333 C6.93738979,2.83333333 2.83333333,6.93738979 2.83333333,12 C2.83333333,17.0626102 6.93738979,21.1666667 12,21.1666667 Z M12,23 C5.92486775,23 1,18.0751322 1,12 C1,5.92486775 5.92486775,1 12,1 C18.0751322,1 23,5.92486775 23,12 C23,18.0751322 18.0751322,23 12,23 Z" id="path-1"></path>
    </defs>
    <g id="lv1/Icons24/sidemenu/ownedmedia-Copy" stroke="none" stroke-width="1" fill="none" fill-rule="evenodd">
        <mask id="mask-2" fill="white">
            <use xlink:href="#path-1"></use>
        </mask>
        <use id="AD" fill="#FFFFFF" xlink:href="#path-1"></use>
    </g>
</svg>