<?xml version="1.0" encoding="UTF-8"?>
<svg width="24px" height="24px" viewBox="0 0 24 24" version="1.1" xmlns="http://www.w3.org/2000/svg" xmlns:xlink="http://www.w3.org/1999/xlink">
    <!-- Generator: Sketch 48.2 (47327) - http://www.bohemiancoding.com/sketch -->
    <title>home</title>
    <desc>Created with Sketch.</desc>
    <defs>
        <path d="M9.71428571,19.5857864 L9.71428571,15.5857864 C9.71428571,15.0335017 10.162001,14.5857864 10.7142857,14.5857864 L13.2857143,14.5857864 C13.837999,14.5857864 14.2857143,15.0335017 14.2857143,15.5857864 L14.2857143,19.5857864 C14.2857143,20.1380712 14.7334295,20.5857864 15.2857143,20.5857864 L19,20.5857864 C19.5522847,20.5857864 20,20.1380712 20,19.5857864 L20,12.9659858 C20,12.7210716 19.9101214,12.484673 19.7474093,12.3016219 L12.7474093,4.42662192 C12.3804913,4.01383915 11.7484189,3.97665842 11.3356362,4.34357644 C11.3063513,4.36960743 11.2786217,4.39733706 11.2525907,4.42662192 L4.25259068,12.3016219 C4.08987857,12.484673 4,12.7210716 4,12.9659858 L4,19.5857864 C4,20.1380712 4.44771525,20.5857864 5,20.5857864 L8.71428571,20.5857864 C9.26657046,20.5857864 9.71428571,20.1380712 9.71428571,19.5857864 Z" id="path-1"></path>
    </defs>
    <g id="lv1/Icons24/sidemenu/home" stroke="none" stroke-width="1" fill="none" fill-rule="evenodd">
        <mask id="mask-2" fill="white">
            <use xlink:href="#path-1"></use>
        </mask>
        <use id="Shape" fill="#9B9B9B" xlink:href="#path-1"></use>
    </g>
</svg>