<?xml version="1.0" encoding="UTF-8"?>
<svg width="36px" height="36px" viewBox="0 0 36 36" version="1.1" xmlns="http://www.w3.org/2000/svg" xmlns:xlink="http://www.w3.org/1999/xlink">
    <!-- Generator: Sketch 48.2 (47327) - http://www.bohemiancoding.com/sketch -->
    <title>news</title>
    <desc>Created with Sketch.</desc>
    <defs></defs>
    <g id="lv1/Icon36/notification-Copy-2" stroke="none" stroke-width="1" fill="none" fill-rule="evenodd">
        <g id="site-copy-2" transform="translate(8.000000, 10.000000)" fill="#82675E" fill-rule="nonzero">
            <path d="M18,0 C19.1045695,6.76353751e-17 20,0.8954305 20,2 L20,14 C20,15.1045695 19.1045695,16 18,16 L2,16 C0.8954305,16 1.3527075e-16,15.1045695 0,14 L0,2 C1.3527075e-16,0.8954305 0.8954305,-6.76353751e-17 2,0 L18,0 Z M16.6902516,2.1839968 L10.1720001,5.82520275 L3.65374865,2.1839968 C3.17159288,1.91465639 2.56238485,2.08717734 2.29304445,2.56933311 C2.02370405,3.05148889 2.19622499,3.66069691 2.67838077,3.93003732 L9.68431617,7.8436718 C9.9873974,8.01297812 10.3566028,8.01297812 10.6596841,7.8436718 L17.6656195,3.93003732 C18.1477752,3.66069691 18.3202962,3.05148889 18.0509558,2.56933311 C17.7816154,2.08717734 17.1724073,1.91465639 16.6902516,2.1839968 Z" id="Combined-Shape"></path>
        </g>
    </g>
</svg>