<?xml version="1.0" encoding="UTF-8"?>
<svg width="36px" height="36px" viewBox="0 0 36 36" version="1.1" xmlns="http://www.w3.org/2000/svg" xmlns:xlink="http://www.w3.org/1999/xlink">
    <!-- Generator: Sketch 48.2 (47327) - http://www.bohemiancoding.com/sketch -->
    <title>search</title>
    <desc>Created with Sketch.</desc>
    <defs></defs>
    <g id="lv1/Icon36/-Copy-13" stroke="none" stroke-width="1" fill="none" fill-rule="evenodd">
        <path d="M20.43,19.73 C21.41,18.59 22,17.11 22,15.5 C22,11.91 19.09,9 15.5,9 C11.91,9 9,11.91 9,15.5 C9,19.09 11.91,22 15.5,22 C17.11,22 18.59,21.41 19.73,20.43 L20.43,19.73 Z M15.5,20 C13.01,20 11,17.99 11,15.5 C11,13.01 13.01,11 15.5,11 C17.99,11 20,13.01 20,15.5 C20,17.99 17.99,20 15.5,20 Z" id="Shape" fill="#82675E" fill-rule="nonzero"></path>
        <path d="M19.958375,21.0295886 L25.0122253,26.0834389 C25.4027496,26.4739632 26.0359146,26.4739632 26.4264389,26.0834389 C26.8169632,25.6929147 26.8169632,25.0597497 26.4264389,24.6692254 L21.3725886,19.6153751 C20.9820643,19.2248508 20.3488993,19.2248508 19.958375,19.6153751 C19.5678507,20.0058994 19.5678507,20.6390644 19.958375,21.0295886 Z" id="Path-2" fill="#82675E" fill-rule="nonzero"></path>
    </g>
</svg>